<svg id="Layer_1" data-name="Layer 1" xmlns="http://www.w3.org/2000/svg" viewBox="0 0 27.37 26.12"><defs><style>.cls-1{fill:#e1d1bc;}.cls-2{fill:#6b5643;}.cls-2,.cls-3{fill-rule:evenodd;}.cls-3{fill:#9a7d5e;}</style></defs><rect class="cls-1" width="27.37" height="26.12"/><path class="cls-2" d="M15.71,4.86,13.38,6.8a.45.45,0,0,1-.64,0l-1.69-2a.46.46,0,0,0-.65,0l-.79.65a.47.47,0,0,0-.1.64l1.69,2a.45.45,0,0,1-.11.63L8.76,10.63a.45.45,0,0,1-.64,0l-1.69-2a.47.47,0,0,0-.65,0L5,9.21a.47.47,0,0,0-.1.64l1.69,2a.45.45,0,0,1-.11.63L4.14,14.46a.45.45,0,0,0-.1.63l.57.69a.47.47,0,0,0,.65,0l2.33-1.93a.45.45,0,0,1,.64,0l1.69,2a.47.47,0,0,1-.1.64L7.49,18.49a.46.46,0,0,0-.11.64l.58.69a.45.45,0,0,0,.64,0l2.33-1.93a.47.47,0,0,1,.65,0l1.68,2a.47.47,0,0,0,.65,0l.79-.66a.45.45,0,0,0,.1-.63l-1.68-2a.46.46,0,0,1,.1-.64l2.33-1.93a.47.47,0,0,1,.65,0l1.68,2a.47.47,0,0,0,.65,0l.79-.66a.45.45,0,0,0,.1-.63l-1.68-2a.45.45,0,0,1,.1-.63l2.33-1.94a.45.45,0,0,0,.1-.63l-.57-.69a.45.45,0,0,0-.64,0l-2.34,1.93a.45.45,0,0,1-.64,0l-1.69-2a.46.46,0,0,1,.11-.64l2.33-1.93a.47.47,0,0,0,.1-.64l-.57-.69A.47.47,0,0,0,15.71,4.86Zm-3.6,9.8,2.33-1.93a.47.47,0,0,0,.1-.64l-1.69-2a.45.45,0,0,0-.64,0L9.88,12a.46.46,0,0,0-.11.64l1.69,2A.47.47,0,0,0,12.11,14.66Z" transform="translate(1.38 1.09)"/><path class="cls-3" d="M15.71,4.19,13.38,6.12a.45.45,0,0,1-.64,0l-1.69-2a.47.47,0,0,0-.65,0l-.79.66a.45.45,0,0,0-.1.63l1.69,2a.46.46,0,0,1-.11.64L8.76,10a.45.45,0,0,1-.64,0l-1.69-2a.47.47,0,0,0-.65,0L5,8.54a.45.45,0,0,0-.1.63l1.69,2a.45.45,0,0,1-.11.63L4.14,13.78a.45.45,0,0,0-.1.63l.57.69a.46.46,0,0,0,.65,0l2.33-1.93a.45.45,0,0,1,.64,0l1.69,2a.47.47,0,0,1-.1.64L7.49,17.81a.46.46,0,0,0-.11.64l.58.69a.45.45,0,0,0,.64,0l2.33-1.94a.47.47,0,0,1,.65,0l1.68,2a.46.46,0,0,0,.65,0l.79-.65a.46.46,0,0,0,.1-.64l-1.68-2a.45.45,0,0,1,.1-.63l2.33-1.94a.47.47,0,0,1,.65,0l1.68,2a.47.47,0,0,0,.65,0l.79-.65a.46.46,0,0,0,.1-.64l-1.68-2a.45.45,0,0,1,.1-.63l2.33-1.94a.45.45,0,0,0,.1-.63l-.57-.69a.45.45,0,0,0-.64,0l-2.34,1.93a.45.45,0,0,1-.64,0l-1.69-2a.46.46,0,0,1,.11-.64l2.33-1.93a.47.47,0,0,0,.1-.64l-.57-.69A.47.47,0,0,0,15.71,4.19ZM12.11,14l2.33-1.93a.47.47,0,0,0,.1-.64l-1.69-2a.45.45,0,0,0-.64,0L9.88,11.29a.46.46,0,0,0-.11.64l1.69,2A.46.46,0,0,0,12.11,14Z" transform="translate(1.38 1.09)"/></svg>